<?xml version="1.0" standalone="no"?><!DOCTYPE svg PUBLIC "-//W3C//DTD SVG 1.1//EN" "http://www.w3.org/Graphics/SVG/1.1/DTD/svg11.dtd"><svg t="1723101325365" class="icon" viewBox="0 0 1024 1024" version="1.1" xmlns="http://www.w3.org/2000/svg" p-id="4360" xmlns:xlink="http://www.w3.org/1999/xlink" width="200" height="200"><path d="M824.064 253.866667a42.666667 42.666667 0 0 0-60.373333-60.330667l-290.389334 290.389333-18.133333 78.464 78.464-18.090666 290.432-290.432zM703.36 133.12a128 128 0 1 1 181.034667 181.034667L593.92 604.586667a85.333333 85.333333 0 0 1-41.130667 22.784l-78.464 18.133333A85.333333 85.333333 0 0 1 372.053333 543.146667l18.090667-78.421334a85.333333 85.333333 0 0 1 22.784-41.173333l290.432-290.432zM554.666667 170.666667a42.666667 42.666667 0 0 0-42.666667-42.666667H298.666667a170.666667 170.666667 0 0 0-170.666667 170.666667v341.333333a42.666667 42.666667 0 1 0 85.333333 0V298.666667a85.333333 85.333333 0 0 1 85.333334-85.333334h213.333333a42.666667 42.666667 0 0 0 42.666667-42.666666zM225.92 770.261333l0.128-0.085333c15.061333 24.32 41.941333 40.490667 72.618667 40.490667h426.666666a85.333333 85.333333 0 0 0 85.333334-85.333334v-213.333333a42.666667 42.666667 0 1 1 85.333333 0v213.333333a170.666667 170.666667 0 0 1-170.666667 170.666667H298.666667a170.581333 170.581333 0 0 1-149.034667-87.466667l-0.085333-0.128a42.666667 42.666667 0 0 1 76.373333-38.186666z" p-id="4361"></path></svg>